<svg xmlns="http://www.w3.org/2000/svg" viewBox="0 0 320 64" role="img" aria-label="BitsToBetter">
  <defs>
    <linearGradient id="logoGradient" x1="0%" y1="0%" x2="100%" y2="100%">
      <stop offset="0%" style="stop-color:#3B82F6"/>
      <stop offset="50%" style="stop-color:#8B5CF6"/>
      <stop offset="100%" style="stop-color:#EC4899"/>
    </linearGradient>
    <filter id="glow" x="-20%" y="-20%" width="140%" height="140%">
      <feGaussianBlur stdDeviation="2" result="coloredBlur"/>
      <feMerge>
        <feMergeNode in="coloredBlur"/>
        <feMergeNode in="SourceGraphic"/>
      </feMerge>
    </filter>
  </defs>
  
  <!-- Icon with gradient -->
  <g filter="url(#glow)">
    <rect x="8" y="12" width="44" height="40" rx="6" fill="url(#logoGradient)"/>
    <!-- Binary bits pattern -->
    <rect x="14" y="20" width="6" height="6" rx="1" fill="white" opacity="0.9"/>
    <rect x="24" y="20" width="6" height="6" rx="1" fill="white" opacity="0.6"/>
    <rect x="34" y="20" width="6" height="6" rx="1" fill="white" opacity="0.9"/>
    <rect x="14" y="30" width="6" height="6" rx="1" fill="white" opacity="0.6"/>
    <rect x="24" y="30" width="6" height="6" rx="1" fill="white" opacity="0.9"/>
    <rect x="34" y="30" width="6" height="6" rx="1" fill="white" opacity="0.6"/>
    <rect x="14" y="40" width="6" height="6" rx="1" fill="white" opacity="0.9"/>
    <rect x="24" y="40" width="6" height="6" rx="1" fill="white" opacity="0.6"/>
    <rect x="34" y="40" width="6" height="6" rx="1" fill="white" opacity="0.9"/>
  </g>
  
  <!-- Text with gradient -->
  <text x="64" y="42" font-family="Segoe UI, Helvetica Neue, Arial, sans-serif" font-size="22" font-weight="800" letter-spacing="1.5" fill="url(#logoGradient)">BITS TO BETTER</text>
</svg>
